<svg version="1" xmlns="http://www.w3.org/2000/svg" width="758.667" height="758.667" viewBox="0 0 569.000000 569.000000"><path d="M261 87c-32.9 1.7-65.3 6.6-80.1 12-11.6 4.3-14.8 6-16.1 8.3-1.4 2.7-1.1 13.1.7 21.7.8 3.9 2 13.5 2.5 21.3.6 7.8 1.7 18.2 2.5 23.2.9 4.9 2.1 13.4 2.9 18.7 1.2 9.1 1.2 9.9-.6 12.5-12.5 18.4-20.7 50.1-19.2 74.3.6 10.8 4.5 29.3 8 38.8 10.3 27.3 32.3 51.9 59.7 66.7 18 9.7 43.9 15.3 65.4 14.2 45.7-2.3 85.5-28.4 106.7-70 10.1-19.8 14.1-38.2 13.3-61.2-.4-12.4-2.6-25.8-5.2-32.6-.5-1.3.3-1.8 3.4-2.3 11.1-1.7 21.1-7.8 21.1-12.8 0-2.9-5.2-8.1-10.1-10.2-1.9-.8-7.3-4-12-7-4.6-3.1-10.3-6.4-12.6-7.3-3.3-1.4-4.2-2.4-4.6-4.7-.3-2 .2-3.7 1.4-4.9 2.2-2.4 1-5.7-2.1-5.7-1.6 0-1.8-.5-1.3-3.8.3-2 1.2-5.2 1.9-7.1 2-4.8 1.8-7.8-.6-8.6-2-.6-2-1.2-1.4-10.8.8-11.8 2.8-18.5 8.5-27.9 7.2-12 7.9-19.3 2.2-23.8-5.5-4.3-24.3-8.3-46.7-9.9-19.2-1.4-69.7-2-87.6-1.1zm95 62.1c0 .5.5.7 1.1.3 1.6-.9 3 1.8 1.7 3.3-.6.7-1.7 1.3-2.5 1.3s-1.1.5-.8 1.1c.4.6 1.3.8 2.1.5 1.6-.6 2.9 1 1.5 1.9-.6.3-.9 5.7-.8 13.1l.3 12.4-3.6.9c-1.9.5-7.5 1.2-12.5 1.6-4.9.3-11.8.8-15.2 1.1-5.4.4-6.3.3-7.2-1.4-.6-1.1-2.2-2.3-3.6-2.6-2.6-.7-5.5-5.1-5.5-8.6 0-3.3 2.9-8 5.5-9 1.4-.5 2.5-1.5 2.5-2.3 0-.8 2.3-1.7 6.3-2.4 4.2-.7 8.6-2.5 13.9-5.6 9.5-5.7 16.8-8.1 16.8-5.6zm-155 57.3l15.5 1.3 10.1 5.1c18 9 27.3 12 54.4 17.1 27.5 5.3 35.8 6.3 58.8 6.8 19.6.5 50.1-.8 55.3-2.3 1.7-.5 3.2 3.7 6 17.1 1.7 7.8 1.7 32 0 41.5-3.1 17.3-12.2 38.4-22.3 51.9-7 9.3-22.5 23.9-31.6 29.9-23.6 15.4-55.4 22.6-82.7 18.7-36.2-5.1-66.3-23.9-86.5-53.9-23.8-35.6-26.7-83.3-7.3-121.9 6.9-13.9 7.7-14.8 11.6-13.6 1.7.6 10.2 1.6 18.7 2.3z"/><path d="M315.1 169.6c-1.8 1.3-2.1 2.2-1.6 4.3 1 3.8 2.4 5.1 5.5 5.1 3.8 0 6.4-3.1 5.5-6.8-.6-2.8-3.1-4.9-4.3-3.7-.3.3 0 .5.7.5.8 0 1.1 1.1.9 2.7-.4 3.3-3.4 3.8-5.2 1-.9-1.5-.7-2.1.8-3.3 2.7-1.9.6-1.8-2.3.2zM320 240.9c-16.2.6-16.5.6-16.8 2.8-.2 1.5.2 2.3 1.1 2.3 1.1 0 1.7 1.6 2.2 5.2 1 7.3 2.8 10.9 7.4 15.1 9.6 8.6 21.5 6.8 28.4-4.5 2.2-3.5 2.9-5.9 3-10.1.1-4.5.5-5.7 2-6.1 1.3-.3 1.8-1.2 1.5-2.8-.4-2.7-1.6-2.8-28.8-1.9zM243 242c-11 .4-12.5.7-12.8 2.3-.3 1.2.4 2 1.7 2.4 1.6.4 1.9.9 1.1 2.3-3 5.6.5 16.2 7 20.9 4.9 3.6 8.7 4.5 14.5 3.6 10.4-1.5 18.7-12.8 16.7-22.5-.7-2.9-.4-3.8 1.2-5.1 1.7-1.4 1.8-1.9.7-3.3-1.4-1.7-4.2-1.8-30.1-.6zM294.2 307.5l-5 4.5-2.9-2.3c-5.9-4.8-8.4-6-10.7-4.9-1.1.5-8.6 6.3-16.6 12.8-17.8 14.6-19.3 15.6-25.3 17.9-4 1.5-5.4 1.6-8.7.6-2.1-.6-4.8-2.3-6-3.8-1.1-1.4-2.2-2.4-2.5-2.2-.9.9 8.1 11.1 12.3 13.9 2.4 1.6 6.3 3.2 8.8 3.6 5.4.8 11.4-1.9 22.6-10 9.1-6.6 12.4-8.3 18.7-9.7 3.4-.7 6.1-.7 8.7 0 2.7.8 4.1.7 5.2-.1.7-.7 4.3-1.1 7.9-1.1 6.1 0 7.5.5 21 7.4 12.5 6.4 15.2 7.4 19.7 7.4 4.3 0 6-.6 10-3.5 4.9-3.5 12.5-13.2 12.6-16 0-.8-1.1.2-2.5 2.2-2.8 4.1-5.2 5.2-10.9 5-5.2-.2-12-3.5-25.7-12.3-18.2-11.6-22.2-13.9-24-13.9-.9 0-3.9 2-6.7 4.5zM306.5 355.1c-4.2 1.6-7.3 1.9-19.5 1.7l-14.5-.3.1 5.1c.1 3.6 1 6.8 3 10.5 3.1 5.7 17.3 20.9 19.6 20.9 2.7 0 12.3-14.3 15.6-23.3 2.1-5.5 3.1-16.9 1.5-16.6-.5.1-3 1-5.8 2z"/></svg>